<?xml version="1.0" standalone="no"?>
<!DOCTYPE svg PUBLIC "-//W3C//DTD SVG 20010904//EN"
 "http://www.w3.org/TR/2001/REC-SVG-20010904/DTD/svg10.dtd">
<svg version="1.0" xmlns="http://www.w3.org/2000/svg"
 width="512.000000pt" height="512.000000pt" viewBox="0 0 512.000000 512.000000"
 preserveAspectRatio="xMidYMid meet">
<metadata>
Created by potrace 1.11, written by Peter Selinger 2001-2013
</metadata>
<g transform="translate(0.000000,512.000000) scale(0.100000,-0.100000)"
fill="#000000" stroke="none">
<path d="M2435 5056 c-173 -90 -504 -260 -850 -436 -165 -84 -383 -196 -485
-248 -237 -122 -541 -277 -817 -417 l-218 -111 0 -1283 0 -1284 100 -52 c55
-28 231 -118 390 -200 160 -81 376 -191 480 -245 207 -106 516 -264 873 -446
125 -64 323 -166 439 -226 l213 -109 202 104 c112 58 316 162 453 232 138 70
336 171 440 225 105 54 298 153 430 220 218 111 461 235 835 427 l135 70 0
1283 0 1283 -145 74 c-80 41 -318 162 -530 270 -530 269 -835 425 -965 493
-60 32 -198 103 -305 158 -107 55 -275 141 -372 191 -97 50 -178 91 -180 91
-2 -1 -57 -29 -123 -64z"/>
</g>
</svg>
